Coordinates
version=1
nRows=10
nColumns=40
inDegrees=yes
endheader
time	pelvis_tilt	pelvis_list	pelvis_rotation	pelvis_tx	pelvis_ty	pelvis_tz	hip_flexion_r	hip_adduction_r	hip_rotation_r	knee_angle_r	knee_angle_r_beta	ankle_angle_r	subtalar_angle_r	mtp_angle_r	hip_flexion_l	hip_adduction_l	hip_rotation_l	knee_angle_l	knee_angle_l_beta	ankle_angle_l	subtalar_angle_l	mtp_angle_l	lumbar_extension	lumbar_bending	lumbar_rotation	arm_flex_r	arm_add_r	arm_rot_r	elbow_flex_r	pro_sup_r	wrist_flex_r	wrist_dev_r	arm_flex_l	arm_add_l	arm_rot_l	elbow_flex_l	pro_sup_l	wrist_flex_l	wrist_dev_l
      6.80000000	      1.91186899	     19.36418349	     89.24853266	     -0.04282503	      0.64310102	     -0.01889380	     50.58329763	    -15.98402122	      6.62872497	    104.69139775	      1.82720959	     28.25454890	      0.00000000	      0.00000000	     51.20044604	    -13.76038798	      8.09884878	    106.55438238	      1.85972480	     29.07997367	      0.00000000	      0.00000000	    -72.63974810	      3.49393159	      1.65503889	      0.00000000	    -14.99999999	      0.00000000	     75.00017585	     45.00000026	      0.00000000	      0.00000000	      0.00000000	    -14.99999999	      0.00000000	     75.00017585	     45.00000026	      0.00000000	      0.00000000
      6.80833000	      1.90440972	     19.12172217	     89.21961897	     -0.04267468	      0.64642671	     -0.01957738	     50.35456478	    -15.89454010	      6.48274339	    104.13497242	      1.81749814	     28.29344505	      0.00000000	      0.00000000	     50.95128348	    -13.72549505	      7.96846346	    105.98193260	      1.84973367	     29.09053499	      0.00000000	      0.00000000	    -72.24363656	      3.45876762	      1.62385383	      0.00000000	    -14.99999999	      0.00000000	     75.00017585	     45.00000026	      0.00000000	      0.00000000	      0.00000000	    -14.99999999	      0.00000000	     75.00017585	     45.00000026	      0.00000000	      0.00000000
      6.81667000	      1.90608743	     19.38453478	     89.24223442	     -0.04270644	      0.65093386	     -0.01985321	     49.45357536	    -15.91294217	      6.20327711	    103.41851887	      1.80499366	     28.22352234	      0.00000000	      0.00000000	     50.06485773	    -13.67375690	      7.79552487	    105.26690358	      1.83725406	     29.07160033	      0.00000000	      0.00000000	    -72.43331826	      3.47301258	      1.55337245	      0.00000000	    -14.99999999	      0.00000000	     75.00017585	     45.00000026	      0.00000000	      0.00000000	      0.00000000	    -14.99999999	      0.00000000	     75.00017585	     45.00000026	      0.00000000	      0.00000000
      6.82500000	      1.87737629	     19.08301251	     89.21743440	     -0.04251974	      0.65408879	     -0.02058632	     49.32788698	    -15.86275951	      6.06543002	    102.89180604	      1.79580079	     28.25632018	      0.00000000	      0.00000000	     49.89763226	    -13.66394494	      7.62787190	    104.70898368	      1.82751652	     29.09247422	      0.00000000	      0.00000000	    -71.94881881	      3.41783702	      1.52992866	      0.00000000	    -14.99999999	      0.00000000	     75.00017585	     45.00000026	      0.00000000	      0.00000000	      0.00000000	    -14.99999999	      0.00000000	     75.00017585	     45.00000026	      0.00000000	      0.00000000
      6.83333000	      1.76624062	     19.19694158	     89.25268123	     -0.04243146	      0.65832479	     -0.02100518	     48.66046134	    -15.93489681	      5.91947461	    102.21118775	      1.78392176	     28.12986215	      0.00000000	      0.00000000	     49.15192325	    -13.52422560	      7.39480142	    103.98424309	      1.81486741	     29.04439976	      0.00000000	      0.00000000	    -71.94862147	      3.35718781	      1.36196616	      0.00000000	    -14.99999999	      0.00000000	     75.00017585	     45.00000026	      0.00000000	      0.00000000	      0.00000000	    -14.99999999	      0.00000000	     75.00017585	     45.00000026	      0.00000000	      0.00000000
      6.84167000	      1.75186941	     18.90165360	     89.21832493	     -0.04225773	      0.66175323	     -0.02174773	     48.48218310	    -15.85010420	      5.78882626	    101.62425353	      1.77367782	     28.17499609	      0.00000000	      0.00000000	     48.94914998	    -13.52614983	      7.22681302	    103.37294144	      1.80419819	     29.06052458	      0.00000000	      0.00000000	    -71.48937992	      3.30953376	      1.33683640	      0.00000000	    -14.99999999	      0.00000000	     75.00017585	     45.00000026	      0.00000000	      0.00000000	      0.00000000	    -14.99999999	      0.00000000	     75.00017585	     45.00000026	      0.00000000	      0.00000000
      6.85000000	      1.68646678	     19.12270338	     89.23781946	     -0.04226758	      0.66630492	     -0.02215817	     47.65613297	    -15.94968330	      5.55530378	    100.88228925	      1.76072810	     27.98853636	      0.00000000	      0.00000000	     48.06863972	    -13.51810371	      6.92933487	    102.60332016	      1.79076576	     28.98335738	      0.00000000	      0.00000000	    -71.60962256	      3.28640406	      1.17756672	      0.00000000	    -14.99999999	      0.00000000	     75.00017585	     45.00000026	      0.00000000	      0.00000000	      0.00000000	    -14.99999999	      0.00000000	     75.00017585	     45.00000026	      0.00000000	      0.00000000
      6.85833000	      1.60907383	     19.18161618	     89.18947368	     -0.04200540	      0.67057238	     -0.02265750	     47.04099019	    -15.93397105	      5.42039845	    100.19192099	      1.74867891	     28.03819002	      0.00000000	      0.00000000	     47.38076569	    -13.48659053	      6.67536523	    101.87810807	      1.77810842	     28.99216194	      0.00000000	      0.00000000	    -71.55210014	      3.13934420	      1.14921542	      0.00000000	    -14.99999999	      0.00000000	     75.00017585	     45.00000026	      0.00000000	      0.00000000	      0.00000000	    -14.99999999	      0.00000000	     75.00017585	     45.00000026	      0.00000000	      0.00000000
      6.86667000	      1.57395986	     19.14918918	     89.20411454	     -0.04190988	      0.67464140	     -0.02330461	     46.50947460	    -15.94607786	      5.21995531	     99.50957978	      1.73676980	     27.98475060	      0.00000000	      0.00000000	     46.81295221	    -13.43808755	      6.48123519	    101.15263030	      1.76544645	     28.97983266	      0.00000000	      0.00000000	    -71.37222813	      3.13252428	      1.05728219	      0.00000000	    -14.99999999	      0.00000000	     75.00017585	     45.00000026	      0.00000000	      0.00000000	      0.00000000	    -14.99999999	      0.00000000	     75.00017585	     45.00000026	      0.00000000	      0.00000000
      6.87500000	      1.55144309	     18.84719127	     89.17916487	     -0.04175634	      0.67819366	     -0.02406858	     46.32685046	    -15.89842858	      5.07363537	     98.88640528	      1.72589336	     27.99893081	      0.00000000	      0.00000000	     46.60321384	    -13.41721845	      6.32969544	    100.50745186	      1.75418596	     28.98200593	      0.00000000	      0.00000000	    -70.89416616	      3.08908523	      1.01787819	      0.00000000	    -14.99999999	      0.00000000	     75.00017585	     45.00000026	      0.00000000	      0.00000000	      0.00000000	    -14.99999999	      0.00000000	     75.00017585	     45.00000026	      0.00000000	      0.00000000
